Inverse Dynamics Generalized Forces
version=1
nRows=16
nColumns=34
inDegrees=no
endheader 
time	pelvis_tilt_moment	pelvis_list_moment	pelvis_rotation_moment	pelvis_tx_force	pelvis_ty_force	pelvis_tz_force	hip_flexion_l_moment	hip_adduction_l_moment	hip_rotation_l_moment	hip_flexion_r_moment	hip_adduction_r_moment	hip_rotation_r_moment	knee_angle_l_moment	knee_angle_r_moment	ankle_angle_l_moment	ankle_angle_r_moment	subtalar_angle_l_moment	subtalar_angle_r_moment	mtp_angle_l_moment	mtp_angle_r_moment	lumbar_extension_moment	lumbar_bending_moment	lumbar_rotation_moment	arm_flex_l_moment	arm_add_l_moment	arm_rot_l_moment	arm_flex_r_moment	arm_add_r_moment	arm_rot_r_moment	elbow_flex_l_moment	elbow_flex_r_moment	pro_sup_l_moment	pro_sup_r_moment	
          4.65000000	         -0.00000001	         -0.00000003	          0.00000000	          0.00000000	         -0.00000001	          0.00000002	         56.64092948	        -35.72588050	          5.21056582	        -27.62698564	        -50.08814395	         17.01991282	        -17.04063399	         -1.01194738	          2.59933450	          0.45849286	         -0.32284681	         -1.77494139	         -0.20638533	          0.06006285	         -0.63246831	        -12.48011006	        -11.78101286	        -14.88619085	        -41.88350142	        -25.32023499	         22.67963363	        116.26773498	         13.65174517	         21.59594898	          6.45836443	         -1.45420259	         -0.14663648	
          4.66000000	         -0.00000006	         -0.00000004	         -0.00000000	         -0.00000005	          0.00000006	          0.00000005	         64.50282157	        -34.34341517	         13.41643361	        -21.99193290	        -52.42125152	         11.07428573	        -14.76814814	          5.42104957	          4.15614726	          2.53232985	         -1.93798951	         -1.75011575	         -0.25339863	         -0.04944283	        -16.59408054	         65.17737982	          4.93206511	         26.10191194	        -56.38072098	         19.13200440	         58.45154894	        125.03120594	         49.74660658	         18.47778916	          8.56707610	         -0.33710004	         -0.13878699	
          4.67000000	         -0.00000003	          0.00000002	         -0.00000000	         -0.00000007	          0.00000006	          0.00000005	         60.84676140	        -24.07568135	         11.63386707	        -59.15284295	        -58.13011604	         16.13398759	        -12.61402695	         26.51189014	          4.37723202	          3.74643534	         -2.12530475	         -2.55241434	         -0.26511961	         -0.11210236	          1.75448719	        123.53300956	          0.40365478	         56.70574166	        -12.65788988	         52.26385862	         83.75988402	        132.51432937	         29.33459199	        -11.39945566	          4.04049211	          1.60562538	         -1.27614678	
          4.68000000	          0.00000001	          0.00000002	          0.00000001	         -0.00000005	          0.00000001	          0.00000001	         57.11537102	        -12.85548998	         10.85409205	        -61.96435151	        -57.72793763	         11.88400893	        -15.00867770	         22.61241296	          3.61408872	          3.37046914	         -1.85499404	         -2.56282651	         -0.21842245	         -0.11440970	          1.41350616	        109.80578859	         16.95130224	         34.65605952	         -9.51842689	         27.86686148	         97.15217964	        139.07089308	        -17.62943823	        -10.75155546	         -6.15834454	          1.04699558	         -2.73350484	
          4.69000000	          0.00000002	          0.00000003	          0.00000001	         -0.00000002	          0.00000001	         -0.00000000	         53.30964114	        -15.32268244	          9.51227305	        -66.22684276	        -39.02666318	         10.93408098	        -16.20381140	         29.61628594	          3.27831856	          2.49593268	         -2.13835501	         -1.57873226	         -0.17714996	         -0.08231669	         18.64390203	         81.32940553	          8.19191520	         61.24029526	        -44.23911833	         38.60833489	         68.77051276	        141.47135014	        -30.19398008	        -16.72452803	         24.99122705	          1.09775070	         -2.30496718	
          4.70000000	          0.00000002	          0.00000002	          0.00000001	          0.00000001	         -0.00000000	          0.00000000	         46.22623274	        -12.47904383	          7.28465045	        -75.29929334	        -24.85129675	          9.75218833	        -14.90272480	         36.44876308	          2.67486548	          1.70329878	         -2.06714952	         -1.02206653	         -0.12542496	         -0.05126092	         47.31074890	         68.69121707	          3.23866481	         82.44792203	        -69.99635207	         39.88189210	         48.73646938	        142.97353439	        -54.24162816	        -15.16593722	         16.40114798	          0.71557004	         -1.74161152	
          4.71000000	          0.00000001	          0.00000004	          0.00000001	          0.00000002	         -0.00000002	          0.00000000	         29.78747911	        -17.99671462	          8.21341386	        -93.76326854	        -14.73787137	          6.62361582	        -11.12370411	         39.63507644	          1.76593048	          0.56910549	         -1.77958926	         -0.85210893	         -0.06313322	          0.00280568	         97.48985348	         34.41034752	         -6.56088737	         97.89059628	        -89.12608474	         67.08218170	         72.40174209	        144.62811567	        -72.17722115	        -18.99433628	         13.72641231	          1.74334731	         -2.72588481	
          4.72000000	         -0.00000000	         -0.00000002	         -0.00000001	          0.00000004	         -0.00000001	         -0.00000003	          5.29447317	        -22.47920858	          5.71931129	        -80.54912004	        -11.26212021	          2.09501893	        -11.12845776	         32.11043880	          1.75226404	         -0.24289212	         -2.02518094	         -0.01073631	         -0.08749023	          0.00440356	        118.09785709	         21.89099428	        -13.51709101	         88.13401431	       -103.48295248	         31.25756183	         64.21561856	        145.75196787	        -56.80636377	         -2.36563494	         17.50678784	         -0.51705987	         -3.23287937	
          4.73000000	         -0.00000000	         -0.00000003	         -0.00000000	          0.00000007	         -0.00000003	         -0.00000000	         -2.71010725	        -32.29236649	          7.06641797	        -46.76096438	        -15.93491305	         -1.78363820	        -16.20448751	         13.65524571	          1.71832376	         -2.10738821	         -2.44956638	          1.26443623	         -0.08736802	          0.06678648	         70.54738090	         -2.78310485	        -18.72314896	         24.84017650	       -114.09896775	        -14.57609833	          8.28413547	         71.20527536	         -3.59354080	          6.30057560	         -9.87549650	         -1.87045997	         -1.35609713	
          4.74000000	         -0.00000004	         -0.00000012	         -0.00000002	          0.00000000	          0.00000002	         -0.00000001	          1.87350482	        -32.14312143	          6.55036479	        -23.89521477	        -10.37218856	          0.90455197	        -14.87627171	          5.90772787	          1.39362144	         -2.40212665	         -1.51795626	          0.11828789	         -0.08396452	          0.15230335	         -1.05845906	        -76.64787740	        -31.90228672	        -24.82636217	       -122.84359799	        -50.02177688	        -33.98074167	         14.32999915	        -40.35391807	        -18.43465552	        -45.25594228	         -0.60435479	         -0.85424997	
          4.75000000	          0.00000001	          0.00000001	          0.00000001	          0.00000003	          0.00000001	         -0.00000001	         38.78118188	        -26.55897200	          8.72383609	        -20.75104465	         -3.80624566	         -2.75554711	         -5.23620995	         16.43088212	          2.01551230	          1.22989463	         -1.00674150	         -2.12046083	         -0.14083558	          0.02611003	        -75.35206467	        -44.80372001	        -16.88144092	        -50.34056364	       -130.09160942	         -2.97596181	        -67.43917472	        -27.46793504	        -70.62874824	         -7.68398827	        -27.90247239	          2.83359716	         -0.78677781	
          4.76000000	          0.00000018	          0.00000003	          0.00000004	         -0.00000004	         -0.00000001	          0.00000000	         52.64933329	        -25.50026614	          8.01143934	         35.83396974	         17.72063646	          2.08312634	         -6.56595179	          9.08251048	          3.57470241	          2.10282812	         -1.17828100	          0.17080943	         -0.23326693	         -0.10766074	       -131.18198073	         40.88561613	        -18.04576373	          1.11259004	       -137.30391155	         36.33744574	        -91.62875019	        -57.23845516	        -19.50269658	         16.13671510	         16.51823030	          0.16416692	          1.85457965	
          4.77000000	         -0.00000024	          0.00000013	         -0.00000002	         -0.00000006	          0.00000014	          0.00000001	         51.74612256	        -18.08364204	          6.22476064	         16.82290134	         -0.48522184	         -2.91498640	        -11.59064359	         -1.56750189	          1.99856563	          1.49648672	          0.09195486	         -0.62859126	         -0.13978529	         -0.07895874	        -77.38352480	        -43.83210738	         -3.65029369	        -34.56197178	       -141.48385505	         68.89652172	        -30.61856297	         -2.80605246	         24.69978842	         22.73497862	         -8.16836943	          3.99873919	          1.35141915	
          4.78000000	          0.00000005	         -0.00000002	          0.00000001	          0.00000009	         -0.00000005	         -0.00000007	         41.99316035	        -25.97891311	          8.69489700	         34.56818173	         32.63458392	         -1.64844731	         -1.29340531	         -4.07968716	          2.15937367	         -0.45629614	         -0.56126477	          1.96506590	         -0.14769763	         -0.04529953	        -96.29639383	        -71.18320275	        -41.93587947	        -58.03297695	       -107.68856566	         92.49173130	        -57.03188291	         35.54278587	         32.05461198	         54.29648531	          2.60280982	          4.51761797	          1.77113279	
          4.79000000	          0.00000006	         -0.00000002	          0.00000001	          0.00000007	         -0.00000006	         -0.00000004	         35.65944453	        -23.99544339	          7.09143961	         11.69707856	         36.76474398	         -3.60791160	          4.76972082	         -1.15962893	          1.55570899	          1.29610616	         -0.34579499	          0.43827338	         -0.11799472	         -0.11250119	        -72.41851689	        -78.72477923	        -46.88334568	         -2.50281691	       -114.59520895	        103.42108688	        -77.77658146	         63.83767367	         53.33012080	         23.35751336	          3.93536261	          4.19228403	          1.97217679	
          4.80000000	          0.00000007	          0.00000004	          0.00000003	          0.00000004	         -0.00000003	         -0.00000008	         29.35047610	        -21.31024266	          6.47220924	          3.65296972	         34.56159772	         -3.83589909	          6.20760192	          2.22271167	          1.31457021	          1.92845165	         -0.66905645	          0.06434302	         -0.08301023	         -0.15239509	        -65.14537314	        -54.50185630	        -38.60430731	         -8.88479700	       -124.35637966	         70.35723772	        -82.91170519	         85.33326196	         46.35603073	         -2.74965246	          6.03345442	          3.90420699	          1.38974016	
